<svg width="16" height="16" viewBox="0 0 16 16" fill="none" xmlns="http://www.w3.org/2000/svg">
<path d="M16 8C16 12.4183 12.4183 16 8 16C3.58172 16 0 12.4183 0 8C0 3.58172 3.58172 0 8 0C12.4183 0 16 3.58172 16 8Z" fill="#D6336C"/>
<path d="M8 14C6.85926 14 5.83704 13.7391 4.93333 13.2174C4.02963 12.6957 3.31111 11.9855 2.77778 11.087C2.25926 10.1739 2 9.14493 2 8C2 6.85507 2.25926 5.83333 2.77778 4.93478C3.31111 4.02174 4.02963 3.30435 4.93333 2.78261C5.83704 2.26087 6.85926 2 8 2C9.05185 2 10.0148 2.18116 10.8889 2.54348C11.7778 2.9058 12.4815 3.41304 13 4.06522L11.0667 6.32609C10.8593 6.0942 10.6148 5.87681 10.3333 5.67391C10.0519 5.47101 9.74074 5.31159 9.4 5.19565C9.05926 5.07971 8.7037 5.02174 8.33333 5.02174C7.77037 5.02174 7.27407 5.15217 6.84444 5.41304C6.41481 5.65942 6.08148 6.00725 5.84444 6.45652C5.60741 6.9058 5.48889 7.42029 5.48889 8C5.48889 8.55073 5.60741 9.05072 5.84444 9.5C6.0963 9.94928 6.43704 10.3043 6.86667 10.5652C7.2963 10.8261 7.78518 10.9565 8.33333 10.9565C8.71852 10.9565 9.07407 10.913 9.4 10.8261C9.72593 10.7246 10.0222 10.5797 10.2889 10.3913C10.5704 10.2029 10.8296 9.97101 11.0667 9.69565L12.9778 11.9783C12.4741 12.6014 11.7704 13.0942 10.8667 13.4565C9.97778 13.8188 9.02222 14 8 14Z" fill="white"/>
</svg>
