<svg width="370" height="121" viewBox="0 0 370 121" fill="none" xmlns="http://www.w3.org/2000/svg">
<path d="M3.85892 118.825V61.9058H20.1521L20.6881 72.1962L18.4371 72.3034C19.2946 70.4454 20.3665 68.8018 21.6528 67.3726C23.0106 65.9433 24.5113 64.7642 26.1549 63.8352C27.87 62.8347 29.6208 62.0844 31.4073 61.5842C33.2653 61.0839 35.1233 60.8338 36.9813 60.8338C39.7683 60.8338 42.3052 61.2626 44.592 62.1201C46.8787 62.9777 48.8797 64.3712 50.5947 66.3006C52.3098 68.1586 53.6676 70.6955 54.668 73.9113L51.9882 73.6969L52.8458 71.9818C53.7748 70.2667 54.9539 68.7303 56.3831 67.3726C57.8838 65.9433 59.5274 64.7642 61.314 63.8352C63.1005 62.8347 64.9585 62.0844 66.888 61.5842C68.8174 61.0839 70.6754 60.8338 72.462 60.8338C76.964 60.8338 80.7158 61.7271 83.7172 63.5136C86.7185 65.2287 88.9696 67.8371 90.4703 71.3387C92.0424 74.8403 92.8285 79.0922 92.8285 84.0945V118.825H75.5705V85.488C75.5705 83.2013 75.249 81.3075 74.6058 79.8069C73.9627 78.3062 72.9979 77.1985 71.7116 76.4839C70.4968 75.6978 68.9604 75.3048 67.1023 75.3048C65.6017 75.3048 64.2082 75.5549 62.9219 76.0551C61.707 76.5554 60.6351 77.2342 59.7061 78.0918C58.8485 78.9493 58.1697 79.9498 57.6694 81.0932C57.1692 82.2365 56.9191 83.5229 56.9191 84.9521V118.825H39.6611V85.3809C39.6611 83.237 39.3396 81.4147 38.6964 79.914C38.0532 78.4134 37.0885 77.27 35.8022 76.4839C34.5159 75.6978 33.0152 75.3048 31.3001 75.3048C29.7994 75.3048 28.4059 75.5549 27.1196 76.0551C25.9048 76.5554 24.8329 77.2342 23.9039 78.0918C23.0463 78.9493 22.3674 79.9498 21.8672 81.0932C21.367 82.2365 21.1169 83.4871 21.1169 84.8449V118.825H3.85892Z" fill="#1098AD"/>
<path d="M126.692 119.897C120.403 119.897 114.937 118.646 110.292 116.145C105.647 113.572 102.038 110.107 99.4652 105.747C96.8926 101.317 95.6063 96.2787 95.6063 90.6333C95.6063 86.2741 96.3209 82.2723 97.7501 78.6277C99.1794 74.9832 101.18 71.8389 103.753 69.1948C106.326 66.4793 109.363 64.4069 112.864 62.9777C116.437 61.477 120.332 60.7266 124.548 60.7266C128.55 60.7266 132.195 61.4412 135.482 62.8705C138.84 64.2997 141.735 66.3006 144.164 68.8732C146.594 71.4459 148.452 74.483 149.738 77.9846C151.025 81.4862 151.596 85.3094 151.453 89.4542L151.346 94.0634H106.004L103.539 84.4161H137.411L135.589 86.4528V84.3089C135.446 82.5224 134.874 80.9502 133.874 79.5925C132.945 78.1632 131.694 77.0556 130.122 76.2695C128.55 75.4834 126.763 75.0904 124.763 75.0904C121.976 75.0904 119.582 75.6621 117.581 76.8055C115.651 77.8774 114.186 79.4853 113.186 81.6291C112.185 83.7015 111.685 86.2741 111.685 89.347C111.685 92.4913 112.328 95.2425 113.615 97.6008C114.972 99.8875 116.902 101.674 119.403 102.96C121.976 104.247 125.013 104.89 128.514 104.89C130.944 104.89 133.088 104.533 134.946 103.818C136.875 103.103 138.948 101.888 141.163 100.173L149.202 111.536C146.987 113.465 144.629 115.037 142.128 116.252C139.627 117.467 137.054 118.36 134.41 118.932C131.837 119.575 129.265 119.897 126.692 119.897Z" fill="#1098AD"/>
<path d="M159.593 118.825V47.542H176.744V118.825H159.593ZM149.517 76.9127V61.9058H187.785V76.9127H149.517Z" fill="#1098AD"/>
<path d="M190.083 118.825V61.9058H206.376L207.126 80.45L203.911 76.9127C204.768 73.8398 206.162 71.0886 208.091 68.6589C210.092 66.2292 212.415 64.2997 215.059 62.8705C217.703 61.4412 220.525 60.7266 223.527 60.7266C224.813 60.7266 225.992 60.8338 227.064 61.0482C228.208 61.2626 229.244 61.5127 230.173 61.7986L225.456 80.7716C224.67 80.2714 223.598 79.8783 222.241 79.5925C220.954 79.2352 219.596 79.0565 218.167 79.0565C216.595 79.0565 215.13 79.3424 213.772 79.914C212.415 80.4143 211.271 81.1646 210.342 82.1651C209.413 83.1655 208.663 84.3447 208.091 85.7024C207.591 87.0602 207.341 88.5966 207.341 90.3117V118.825H190.083Z" fill="#1098AD"/>
<path d="M232.325 118.825V61.9058H249.476V118.825H232.325ZM240.9 50.6506C237.685 50.6506 235.148 49.9002 233.29 48.3995C231.503 46.8274 230.61 44.6121 230.61 41.7536C230.61 39.181 231.539 37.0729 233.397 35.4293C235.255 33.7856 237.756 32.9638 240.9 32.9638C244.116 32.9638 246.617 33.7499 248.404 35.3221C250.19 36.8228 251.084 38.9666 251.084 41.7536C251.084 44.3977 250.155 46.5415 248.297 48.1851C246.51 49.8288 244.045 50.6506 240.9 50.6506Z" fill="#1098AD"/>
<path d="M283.063 119.897C277.56 119.897 272.63 118.61 268.27 116.038C263.911 113.465 260.445 109.964 257.873 105.533C255.372 101.031 254.121 95.9572 254.121 90.3117C254.121 84.6662 255.372 79.6282 257.873 75.1976C260.445 70.6955 263.911 67.1582 268.27 64.5856C272.63 62.0129 277.56 60.7266 283.063 60.7266C288.137 60.7266 292.782 61.6199 296.998 63.4064C301.286 65.193 304.68 67.6941 307.181 70.9099L297.855 82.0579C296.855 80.9145 295.676 79.8426 294.318 78.8421C292.96 77.8417 291.46 77.0556 289.816 76.4839C288.172 75.9122 286.457 75.6264 284.671 75.6264C281.955 75.6264 279.561 76.2695 277.489 77.5558C275.417 78.7707 273.809 80.4857 272.665 82.701C271.522 84.9164 270.95 87.4532 270.95 90.3117C270.95 93.0272 271.522 95.4927 272.665 97.708C273.88 99.9233 275.524 101.674 277.596 102.96C279.669 104.247 282.027 104.89 284.671 104.89C286.529 104.89 288.244 104.675 289.816 104.247C291.388 103.746 292.817 103.032 294.104 102.103C295.461 101.174 296.712 100.03 297.855 98.6727L307.074 109.928C304.644 113.001 301.25 115.43 296.891 117.217C292.603 119.003 287.994 119.897 283.063 119.897Z" fill="#1098AD"/>
<path d="M328.182 119.897C322.608 119.897 317.678 119.003 313.39 117.217C309.174 115.43 305.815 113.036 303.314 110.035L313.712 101.031C315.927 103.246 318.428 104.89 321.215 105.962C324.002 106.962 326.646 107.462 329.147 107.462C330.148 107.462 331.041 107.355 331.827 107.141C332.613 106.926 333.256 106.641 333.757 106.283C334.328 105.855 334.757 105.39 335.043 104.89C335.329 104.318 335.472 103.675 335.472 102.96C335.472 101.531 334.828 100.424 333.542 99.6374C332.899 99.2801 331.827 98.8513 330.326 98.3511C328.826 97.8509 326.896 97.2792 324.538 96.636C321.179 95.7785 318.249 94.778 315.748 93.6347C313.318 92.4198 311.318 91.0263 309.745 89.4542C308.316 87.9535 307.209 86.3099 306.422 84.5233C305.636 82.6653 305.243 80.5929 305.243 78.3062C305.243 75.6621 305.851 73.2681 307.066 71.1243C308.352 68.9804 310.031 67.1224 312.104 65.5503C314.247 63.9781 316.677 62.799 319.393 62.0129C322.18 61.1554 325.038 60.7266 327.968 60.7266C331.112 60.7266 334.114 61.0839 336.972 61.7986C339.831 62.5132 342.475 63.5136 344.904 64.7999C347.406 66.0862 349.621 67.6227 351.55 69.4092L342.546 79.4853C341.26 78.2704 339.795 77.1985 338.151 76.2695C336.579 75.2691 334.936 74.483 333.221 73.9113C331.505 73.3396 329.933 73.0537 328.504 73.0537C327.432 73.0537 326.467 73.1609 325.61 73.3753C324.824 73.5182 324.145 73.8041 323.573 74.2329C323.002 74.5902 322.573 75.0547 322.287 75.6264C322.001 76.1266 321.858 76.734 321.858 77.4486C321.858 78.1632 322.037 78.8421 322.394 79.4853C322.823 80.1284 323.395 80.6644 324.109 81.0932C324.824 81.5219 325.967 82.0222 327.539 82.5939C329.111 83.0941 331.255 83.7372 333.971 84.5233C337.33 85.4523 340.224 86.4885 342.653 87.6319C345.083 88.7753 347.013 90.133 348.442 91.7052C349.585 92.92 350.443 94.3493 351.014 95.9929C351.586 97.565 351.872 99.2801 351.872 101.138C351.872 104.783 350.836 108.034 348.763 110.893C346.762 113.68 343.975 115.895 340.402 117.539C336.829 119.111 332.756 119.897 328.182 119.897Z" fill="#1098AD"/>
<path d="M360.674 120.004C357.744 120.004 355.458 119.182 353.814 117.539C352.242 115.895 351.456 113.537 351.456 110.464C351.456 107.605 352.313 105.283 354.028 103.496C355.743 101.71 357.959 100.817 360.674 100.817C363.604 100.817 365.891 101.674 367.535 103.389C369.178 105.033 370 107.391 370 110.464C370 113.251 369.142 115.538 367.427 117.324C365.712 119.111 363.461 120.004 360.674 120.004Z" fill="#1098AD"/>
<path d="M28.9419 59.9201C23.4394 59.9201 18.5085 58.6338 14.1494 56.0612C9.79023 53.4886 6.32434 49.987 3.75173 45.5564C1.25058 41.0543 0 35.9805 0 30.3351C0 24.6896 1.25058 19.6516 3.75173 15.221C6.32434 10.7189 9.79023 7.18154 14.1494 4.60892C18.5085 2.03631 23.4394 0.75 28.9419 0.75C34.0157 0.75 38.6607 1.64327 42.8769 3.42981C47.1646 5.21635 50.559 7.7175 53.0602 10.9333L43.7344 22.0813C42.734 20.9379 41.5549 19.866 40.1971 18.8655C38.8393 17.865 37.3386 17.079 35.695 16.5073C34.0514 15.9356 32.3363 15.6497 30.5498 15.6497C27.8343 15.6497 25.4403 16.2929 23.3679 17.5792C21.2955 18.794 19.6876 20.5091 18.5443 22.7244C17.4009 24.9397 16.8292 27.4766 16.8292 30.3351C16.8292 33.0506 17.4009 35.516 18.5443 37.7313C19.7591 39.9466 21.4027 41.6974 23.4751 42.9838C25.5475 44.2701 27.9057 44.9132 30.5498 44.9132C32.4078 44.9132 34.1229 44.6988 35.695 44.2701C37.2672 43.7698 38.6964 43.0552 39.9827 42.1262C41.3405 41.1972 42.5911 40.0538 43.7344 38.6961L52.953 49.9512C50.5233 53.0241 47.1289 55.4538 42.7697 57.2403C38.482 59.0269 33.8728 59.9201 28.9419 59.9201Z" fill="#D6336C"/>
<path d="M81.6721 59.9201C75.7408 59.9201 70.4527 58.6338 65.8077 56.0612C61.2341 53.4886 57.5896 49.987 54.8741 45.5564C52.23 41.1258 50.9079 36.052 50.9079 30.3351C50.9079 24.6181 52.23 19.5444 54.8741 15.1138C57.5896 10.6832 61.2341 7.18154 65.8077 4.60892C70.4527 2.03631 75.7408 0.75 81.6721 0.75C87.6034 0.75 92.8559 2.03631 97.4294 4.60892C102.074 7.18154 105.719 10.6832 108.363 15.1138C111.007 19.5444 112.329 24.6181 112.329 30.3351C112.329 36.052 111.007 41.1258 108.363 45.5564C105.719 49.987 102.074 53.4886 97.4294 56.0612C92.8559 58.6338 87.6034 59.9201 81.6721 59.9201ZM81.6721 45.1276C84.2447 45.1276 86.5315 44.4844 88.5324 43.1981C90.5334 41.9118 92.1055 40.161 93.2489 37.9457C94.3923 35.7304 94.9282 33.1935 94.8568 30.3351C94.9282 27.4766 94.3923 24.9397 93.2489 22.7244C92.1055 20.4376 90.5334 18.6511 88.5324 17.3648C86.5315 16.0785 84.2447 15.4353 81.6721 15.4353C79.0995 15.4353 76.777 16.0785 74.7046 17.3648C72.7037 18.6511 71.1315 20.4376 69.9882 22.7244C68.8448 24.9397 68.3088 27.4766 68.3803 30.3351C68.3088 33.1935 68.8448 35.7304 69.9882 37.9457C71.1315 40.161 72.7037 41.9118 74.7046 43.1981C76.777 44.4844 79.0995 45.1276 81.6721 45.1276Z" fill="#D6336C"/>
<path d="M135.228 59.9201C129.654 59.9201 124.723 59.0269 120.436 57.2403C116.219 55.4538 112.861 53.0598 110.359 50.0584L120.757 41.0543C122.972 43.2696 125.474 44.9132 128.261 45.9851C131.048 46.9856 133.692 47.4858 136.193 47.4858C137.193 47.4858 138.087 47.3786 138.873 47.1643C139.659 46.9499 140.302 46.664 140.802 46.3067C141.374 45.8779 141.803 45.4134 142.088 44.9132C142.374 44.3415 142.517 43.6984 142.517 42.9838C142.517 41.5545 141.874 40.4469 140.588 39.6608C139.945 39.3035 138.873 38.8747 137.372 38.3745C135.871 37.8743 133.942 37.3026 131.584 36.6594C128.225 35.8019 125.295 34.8014 122.794 33.658C120.364 32.4432 118.363 31.0497 116.791 29.4775C115.362 27.9768 114.254 26.3332 113.468 24.5467C112.682 22.6887 112.289 20.6163 112.289 18.3295C112.289 15.6855 112.896 13.2915 114.111 11.1477C115.397 9.00381 117.077 7.14581 119.149 5.57366C121.293 4.0015 123.723 2.82238 126.438 2.03631C129.225 1.17877 132.084 0.75 135.014 0.75C138.158 0.75 141.159 1.10731 144.018 1.82193C146.876 2.53654 149.52 3.537 151.95 4.82331C154.451 6.10962 156.667 7.64604 158.596 9.43258L149.592 19.5086C148.306 18.2938 146.841 17.2219 145.197 16.2929C143.625 15.2924 141.981 14.5063 140.266 13.9347C138.551 13.363 136.979 13.0771 135.55 13.0771C134.478 13.0771 133.513 13.1843 132.655 13.3987C131.869 13.5416 131.19 13.8275 130.619 14.2562C130.047 14.6135 129.618 15.078 129.332 15.6497C129.047 16.15 128.904 16.7574 128.904 17.472C128.904 18.1866 129.082 18.8655 129.44 19.5086C129.868 20.1518 130.44 20.6878 131.155 21.1165C131.869 21.5453 133.013 22.0455 134.585 22.6172C136.157 23.1175 138.301 23.7606 141.016 24.5467C144.375 25.4757 147.269 26.5119 149.699 27.6553C152.129 28.7986 154.058 30.1564 155.487 31.7286C156.631 32.9434 157.488 34.3726 158.06 36.0163C158.632 37.5884 158.918 39.3035 158.918 41.1615C158.918 44.806 157.881 48.0575 155.809 50.916C153.808 53.703 151.021 55.9183 147.448 57.5619C143.875 59.1341 139.802 59.9201 135.228 59.9201Z" fill="#D6336C"/>
</svg>
